0
SECTION
2
HEADER
9
$INSUNITS
70
4
9
$ACADVER
1
AC1014
9
$HANDSEED
5
FFFF
0
ENDSEC
0
SECTION
2
TABLES
0
TABLE
2
VPORT
5
8
100
AcDbSymbolTable
0
ENDTAB
0
TABLE
2
LTYPE
5
5
100
AcDbSymbolTable
0
LTYPE
5
14
100
AcDbSymbolTableRecord
100
AcDbLinetypeTableRecord
2
BYBLOCK
70
0
0
LTYPE
5
15
100
AcDbSymbolTableRecord
100
AcDbLinetypeTableRecord
2
BYLAYER
70
0
0
ENDTAB
0
TABLE
2
LAYER
5
2
100
AcDbSymbolTable
70
2
0
LAYER
5
50
100
AcDbSymbolTableRecord
100
AcDbLayerTableRecord
2
0
70
0
6
CONTINUOUS
0
ENDTAB
0
TABLE
2
STYLE
5
3
100
AcDbSymbolTable
70
1
0
STYLE
5
11
100
AcDbSymbolTableRecord
100
AcDbTextStyleTableRecord
2
STANDARD
70
0
0
ENDTAB
0
TABLE
2
VIEW
5
6
100
AcDbSymbolTable
70
0
0
ENDTAB
0
TABLE
2
UCS
5
7
100
AcDbSymbolTable
70
0
0
ENDTAB
0
TABLE
2
APPID
5
9
100
AcDbSymbolTable
70
2
0
APPID
5
12
100
AcDbSymbolTableRecord
100
AcDbRegAppTableRecord
2
ACAD
70
0
0
ENDTAB
0
TABLE
2
DIMSTYLE
5
A
100
AcDbSymbolTable
70
1
0
ENDTAB
0
TABLE
2
BLOCK_RECORD
5
1
100
AcDbSymbolTable
70
1
0
BLOCK_RECORD
5
1F
100
AcDbSymbolTableRecord
100
AcDbBlockTableRecord
2
*MODEL_SPACE
0
BLOCK_RECORD
5
1B
100
AcDbSymbolTableRecord
100
AcDbBlockTableRecord
2
*PAPER_SPACE
0
ENDTAB
0
ENDSEC
0
SECTION
2
BLOCKS
0
BLOCK
5
20
100
AcDbEntity
100
AcDbBlockBegin
2
*MODEL_SPACE
0
ENDBLK
5
21
100
AcDbEntity
100
AcDbBlockEnd
0
BLOCK
5
1C
100
AcDbEntity
100
AcDbBlockBegin
2
*PAPER_SPACE
0
ENDBLK
5
1D
100
AcDbEntity
100
AcDbBlockEnd
0
ENDSEC
0
SECTION
2
ENTITIES
0
CIRCLE
5
100
100
AcDbEntity
8
0
100
AcDbCircle
10
78.040000000000006
20
40.559999999999704
30
0
40
1.5875000000000126
210
0
220
0
230
1
0
CIRCLE
5
101
100
AcDbEntity
8
0
100
AcDbCircle
10
78.039999999999935
20
12.619999999999807
30
0
40
1.5875000000000126
210
0
220
0
230
1
0
CIRCLE
5
102
100
AcDbEntity
8
0
100
AcDbCircle
10
27.239999999999903
20
55.79999999999977
30
0
40
1.5875000000000039
210
0
220
0
230
1
0
CIRCLE
5
103
100
AcDbEntity
8
0
100
AcDbCircle
10
25.969999999999793
20
7.5399999999999583
30
0
40
1.5875000000000039
210
0
220
0
230
1
0
LWPOLYLINE
5
104
100
AcDbEntity
8
0
100
AcDbPolyline
90
48
70
1
43
0.0
10
0
20
-5
10
0
20
20
10
5
20
20
10
5
20
40
10
0
20
40
10
0
20
100
10
5
20
100
10
5
20
120
10
0
20
120
10
0
20
140
10
5
20
140
10
5
20
160
10
0
20
160
10
0
20
185
10
35
20
185
10
35
20
180
10
65
20
180
10
65
20
185
10
95
20
185
10
95
20
180
10
125
20
180
10
125
20
185
10
160
20
185
10
160
20
160
10
155
20
160
10
155
20
140
10
160
20
140
10
160
20
120
10
155
20
120
10
155
20
100
10
160
20
100
10
160
20
40
10
155
20
40
10
155
20
20
10
160
20
20
10
160
20
-5
10
137.14285714285714
20
-5
10
137.14285714285714
20
0
10
114.28571428571428
20
0
10
114.28571428571428
20
-5
10
91.428571428571416
20
-5
10
91.428571428571416
20
0
10
68.571428571428569
20
0
10
68.571428571428569
20
-5
10
45.714285714285708
20
-5
10
45.714285714285708
20
0
10
22.857142857142854
20
0
10
22.857142857142854
20
-5
0
LWPOLYLINE
5
105
100
AcDbEntity
8
0
100
AcDbPolyline
90
4
70
1
43
0.0
10
35
20
70
10
35
20
65
10
65.000000000000014
20
65
10
65.000000000000014
20
70
0
LWPOLYLINE
5
106
100
AcDbEntity
8
0
100
AcDbPolyline
90
4
70
1
43
0.0
10
95
20
70
10
95
20
65
10
125.00000000000001
20
65
10
125.00000000000001
20
70
0
LWPOLYLINE
5
107
100
AcDbEntity
8
0
100
AcDbPolyline
90
4
70
1
43
0.0
10
55
20
120
10
55
20
115
10
105
20
115
10
105
20
120
0
ENDSEC
0
SECTION
2
OBJECTS
0
DICTIONARY
5
C
100
AcDbDictionary
3
ACAD_GROUP
350
D
3
ACAD_MLINESTYLE
350
17
0
DICTIONARY
5
D
100
AcDbDictionary
0
DICTIONARY
5
1A
330
C
100
AcDbDictionary
0
DICTIONARY
5
17
100
AcDbDictionary
0
ENDSEC
0
EOF
